<svg width="21" height="16" viewBox="0 0 21 16" fill="none" xmlns="http://www.w3.org/2000/svg">
<path d="M0.750057 14.7008C0.750057 15.406 1.32618 15.9772 2.03601 15.9772H2.05449C1.33379 15.9772 0.750057 15.406 0.750057 14.7008Z" fill="#FBBC05"/>
<path d="M11.8006 4.80894V8.14132L16.2933 4.51751V1.29895C16.2933 0.593755 15.7172 0.022583 15.0074 0.022583L5.27412 0.022583L5.26542 4.80894L11.8006 4.80894Z" fill="#FBBC05"/>
<path d="M11.8009 11.4751H5.25485L5.24724 15.9774L15.0077 15.9774C15.7186 15.9774 16.2936 15.4063 16.2936 14.7011V11.7952L11.8009 8.1427V11.4751Z" fill="#34A853"/>
<path d="M5.27427 0.022583L0.750057 4.80894L5.26666 4.80894L5.27427 0.022583Z" fill="#EA4335"/>
<path d="M0.750057 11.4748L0.750057 14.7008C0.750057 15.406 1.33379 15.9772 2.05449 15.9772H5.24709L5.2547 11.4748H0.750057Z" fill="#1967D2"/>
<path d="M5.26666 4.80896L0.750057 4.80896L0.750057 11.4748H5.2547L5.26666 4.80896Z" fill="#4285F4"/>
<path d="M20.2436 13.5662V2.61071C19.9903 1.15672 18.3956 2.82344 18.3956 2.82344L16.2944 4.51781V11.7941L19.3022 14.2394C20.3881 14.382 20.2436 13.5662 20.2436 13.5662Z" fill="#34A853"/>
<path d="M11.8007 8.1413L16.2944 11.7949V4.51855L11.8007 8.1413Z" fill="#188038"/>
</svg>
