<svg width="20" height="18" viewBox="0 0 20 18" fill="none" xmlns="http://www.w3.org/2000/svg">
<rect x="0.249939" width="19" height="18" rx="9" fill="white"/>
<path d="M14.8845 12.217C14.8856 12.4195 14.8413 12.6198 14.7545 12.8049C14.6677 12.9899 14.5403 13.1553 14.3809 13.2901C14.2215 13.425 14.0336 13.5262 13.8298 13.5871C13.626 13.648 13.4108 13.6671 13.1986 13.6432C12.426 13.5349 11.8599 12.898 11.8787 12.1584V3.65455C11.86 2.9141 12.4276 2.27685 13.2011 2.16973C13.4132 2.14621 13.6281 2.16561 13.8316 2.22664C14.0351 2.28767 14.2226 2.38895 14.3818 2.52377C14.5409 2.65859 14.668 2.82388 14.7547 3.00871C14.8413 3.19354 14.8856 3.39369 14.8845 3.59593V12.217Z" fill="#F9AB00"/>
<path d="M5.42619 10.8079C6.25624 10.8079 6.9291 11.4453 6.9291 12.2317C6.9291 13.018 6.25624 13.6555 5.42619 13.6555C4.59614 13.6555 3.92327 13.018 3.92327 12.2317C3.92327 11.4453 4.59614 10.8079 5.42619 10.8079ZM9.38067 6.49244C8.54673 6.53576 7.89963 7.19848 7.91903 7.98955V11.8141C7.91903 12.852 8.40111 13.4821 9.10741 13.6164C9.32639 13.6585 9.5525 13.6538 9.76934 13.6028C9.98619 13.5518 10.1883 13.4557 10.3611 13.3215C10.5339 13.1873 10.6729 13.0183 10.7682 12.8268C10.8635 12.6354 10.9126 12.4262 10.912 12.2146V7.92364C10.9123 7.73394 10.8728 7.54608 10.7957 7.37101C10.7187 7.19594 10.6055 7.03716 10.463 6.90394C10.3205 6.77072 10.1513 6.66573 9.96552 6.59508C9.77969 6.52444 9.58088 6.48956 9.38067 6.49248V6.49244Z" fill="#E37400"/>
</svg>
