<svg width="17" height="18" viewBox="0 0 17 18" fill="none" xmlns="http://www.w3.org/2000/svg">
<path d="M2.93154 3.24602C3.48241 3.69351 3.68917 3.65954 4.72444 3.59013L14.4827 3.00456C14.6895 3.00456 14.5174 2.7978 14.4487 2.76383L12.8272 1.59195C12.517 1.35123 12.1028 1.07505 11.3097 1.14373L1.86157 1.83342C1.51746 1.86738 1.44805 2.04017 1.5854 2.17752L2.93154 3.24602ZM3.51711 5.52037L3.51711 15.7874C3.51711 16.339 3.79255 16.5458 4.41356 16.5111L15.1377 15.8908C15.7587 15.8568 15.8281 15.4773 15.8281 15.0291L15.8281 4.83068C15.8281 4.38319 15.6561 4.14173 15.2758 4.1757L4.06872 4.83068C3.6552 4.86539 3.51711 5.07288 3.51711 5.52037ZM14.1039 6.07049C14.1726 6.38063 14.1039 6.69077 13.7938 6.72621L13.2769 6.82959V14.4088C12.8279 14.6502 12.4144 14.7883 12.0695 14.7883C11.5172 14.7883 11.3791 14.6155 10.9656 14.0994L7.58583 8.79306V13.9266L8.65507 14.1688C8.65507 14.1688 8.65507 14.7891 7.79259 14.7891L5.41339 14.9264C5.34471 14.7891 5.41339 14.4442 5.65485 14.3756L6.27513 14.2035L6.27513 7.41516L5.41486 7.34575C5.34545 7.03561 5.51824 6.58813 6.00043 6.55342L8.55243 6.38137L12.0703 11.7564V7.00091L11.1731 6.89827C11.1044 6.51872 11.3799 6.24328 11.7247 6.20932L14.1039 6.07049ZM1.0685 0.903002L10.8969 0.179346C12.1035 0.0759668 12.4144 0.14464 13.1727 0.696243L16.3103 2.90118C16.8272 3.27999 17 3.38337 17 3.79689L17 15.8908C17 16.6484 16.7246 17.0974 15.7594 17.1653L4.34489 17.855C3.62123 17.8897 3.27565 17.7863 2.8961 17.3034L0.58557 14.3054C0.172053 13.7538 0 13.341 0 12.8581L0 2.10811C0 1.48857 0.276171 0.970937 1.0685 0.903002Z" fill="black"/>
</svg>
